<mxfile host="app.diagrams.net" modified="2023-07-31T22:46:06.505Z" agent="Mozilla/5.0 (Windows NT 10.0; Win64; x64) AppleWebKit/537.36 (KHTML, like Gecko) Chrome/115.0.0.0 Safari/537.36" etag="7V8r-KTf1OAfmmtvwIXE" version="21.6.6" type="device">
  <diagram name="Page-1" id="jl1Zf9UWhDI_bTotC0tc">
    <mxGraphModel dx="1150" dy="499" grid="1" gridSize="10" guides="1" tooltips="1" connect="1" arrows="1" fold="1" page="1" pageScale="1" pageWidth="850" pageHeight="1100" math="0" shadow="0">
      <root>
        <mxCell id="0" />
        <mxCell id="1" parent="0" />
        <mxCell id="xC81MT41t4YI-uZw1Y0j-1" value="Bank&lt;br&gt;name&lt;br&gt;bankid&lt;br&gt;web url&lt;br&gt;phonenumber&lt;br&gt;location" style="whiteSpace=wrap;html=1;aspect=fixed;" parent="1" vertex="1">
          <mxGeometry x="120" y="315" width="110" height="110" as="geometry" />
        </mxCell>
        <mxCell id="xC81MT41t4YI-uZw1Y0j-2" value="Employee&lt;br&gt;id&lt;br&gt;first, last name&lt;br&gt;email&lt;br&gt;phonenumber" style="ellipse;whiteSpace=wrap;html=1;" parent="1" vertex="1">
          <mxGeometry x="410" y="330" width="120" height="80" as="geometry" />
        </mxCell>
        <mxCell id="xC81MT41t4YI-uZw1Y0j-13" value="Part Time&lt;br&gt;rate&lt;br&gt;hour" style="ellipse;whiteSpace=wrap;html=1;" parent="1" vertex="1">
          <mxGeometry x="280" y="510" width="120" height="80" as="geometry" />
        </mxCell>
        <mxCell id="xC81MT41t4YI-uZw1Y0j-15" value="Full Time&lt;br&gt;Salary" style="ellipse;whiteSpace=wrap;html=1;" parent="1" vertex="1">
          <mxGeometry x="520" y="510" width="120" height="80" as="geometry" />
        </mxCell>
        <mxCell id="xC81MT41t4YI-uZw1Y0j-17" value="Customer&lt;br&gt;id&lt;br&gt;first, last name&lt;br&gt;email&lt;br&gt;phonenumber" style="ellipse;whiteSpace=wrap;html=1;" parent="1" vertex="1">
          <mxGeometry x="210" y="140" width="120" height="80" as="geometry" />
        </mxCell>
        <mxCell id="xC81MT41t4YI-uZw1Y0j-19" value="Personal Account&lt;br&gt;Account id&lt;br style=&quot;border-color: var(--border-color);&quot;&gt;type&lt;br style=&quot;border-color: var(--border-color);&quot;&gt;balance" style="ellipse;whiteSpace=wrap;html=1;" parent="1" vertex="1">
          <mxGeometry x="460" y="230" width="120" height="90" as="geometry" />
        </mxCell>
        <mxCell id="xC81MT41t4YI-uZw1Y0j-20" value="Business Account&lt;br&gt;Account id&lt;br&gt;type&lt;br&gt;balance" style="ellipse;whiteSpace=wrap;html=1;" parent="1" vertex="1">
          <mxGeometry x="460" y="20" width="120" height="80" as="geometry" />
        </mxCell>
        <mxCell id="xC81MT41t4YI-uZw1Y0j-23" value="Saving Account" style="ellipse;whiteSpace=wrap;html=1;" parent="1" vertex="1">
          <mxGeometry x="620" width="120" height="50" as="geometry" />
        </mxCell>
        <mxCell id="xC81MT41t4YI-uZw1Y0j-28" value="Checking" style="ellipse;whiteSpace=wrap;html=1;" parent="1" vertex="1">
          <mxGeometry x="620" y="80" width="120" height="50" as="geometry" />
        </mxCell>
        <mxCell id="xC81MT41t4YI-uZw1Y0j-29" style="edgeStyle=orthogonalEdgeStyle;rounded=0;orthogonalLoop=1;jettySize=auto;html=1;exitX=0.5;exitY=1;exitDx=0;exitDy=0;" parent="1" source="xC81MT41t4YI-uZw1Y0j-23" target="xC81MT41t4YI-uZw1Y0j-23" edge="1">
          <mxGeometry relative="1" as="geometry" />
        </mxCell>
        <mxCell id="xC81MT41t4YI-uZw1Y0j-33" value="Saving Account" style="ellipse;whiteSpace=wrap;html=1;" parent="1" vertex="1">
          <mxGeometry x="620" y="220" width="120" height="50" as="geometry" />
        </mxCell>
        <mxCell id="xC81MT41t4YI-uZw1Y0j-37" value="Checking" style="ellipse;whiteSpace=wrap;html=1;" parent="1" vertex="1">
          <mxGeometry x="620" y="300" width="120" height="50" as="geometry" />
        </mxCell>
        <mxCell id="xC81MT41t4YI-uZw1Y0j-43" value="Transactions&lt;br&gt;transaction id&lt;br&gt;type&lt;br&gt;amount&lt;br&gt;date/time" style="whiteSpace=wrap;html=1;" parent="1" vertex="1">
          <mxGeometry x="460" y="130" width="120" height="70" as="geometry" />
        </mxCell>
        <mxCell id="_AO3a3Tt-OD15XC3Biih-11" value="" style="endArrow=none;startArrow=diamondThin;endFill=0;startFill=0;html=1;verticalAlign=bottom;labelBackgroundColor=none;strokeWidth=1;startSize=8;endSize=8;rounded=0;exitX=1;exitY=0.5;exitDx=0;exitDy=0;entryX=0;entryY=0.5;entryDx=0;entryDy=0;" edge="1" parent="1" source="xC81MT41t4YI-uZw1Y0j-1" target="xC81MT41t4YI-uZw1Y0j-2">
          <mxGeometry width="160" relative="1" as="geometry">
            <mxPoint x="250" y="369.5" as="sourcePoint" />
            <mxPoint x="410" y="369.5" as="targetPoint" />
          </mxGeometry>
        </mxCell>
        <mxCell id="_AO3a3Tt-OD15XC3Biih-12" value="" style="endArrow=none;startArrow=diamondThin;endFill=0;startFill=0;html=1;verticalAlign=bottom;labelBackgroundColor=none;strokeWidth=1;startSize=8;endSize=8;rounded=0;entryX=0;entryY=0.5;entryDx=0;entryDy=0;exitX=0.5;exitY=0;exitDx=0;exitDy=0;" edge="1" parent="1" source="xC81MT41t4YI-uZw1Y0j-1" target="xC81MT41t4YI-uZw1Y0j-17">
          <mxGeometry width="160" relative="1" as="geometry">
            <mxPoint x="20" y="190" as="sourcePoint" />
            <mxPoint x="180" y="190" as="targetPoint" />
            <Array as="points">
              <mxPoint x="175" y="180" />
            </Array>
          </mxGeometry>
        </mxCell>
        <mxCell id="_AO3a3Tt-OD15XC3Biih-13" value="" style="endArrow=none;startArrow=diamondThin;endFill=0;startFill=1;html=1;verticalAlign=bottom;labelBackgroundColor=none;strokeWidth=1;startSize=8;endSize=8;rounded=0;entryX=0.5;entryY=0;entryDx=0;entryDy=0;exitX=0.5;exitY=1;exitDx=0;exitDy=0;" edge="1" parent="1" source="xC81MT41t4YI-uZw1Y0j-2" target="xC81MT41t4YI-uZw1Y0j-13">
          <mxGeometry width="160" relative="1" as="geometry">
            <mxPoint x="340" y="420" as="sourcePoint" />
            <mxPoint x="500" y="420" as="targetPoint" />
            <Array as="points">
              <mxPoint x="470" y="480" />
              <mxPoint x="340" y="480" />
            </Array>
          </mxGeometry>
        </mxCell>
        <mxCell id="_AO3a3Tt-OD15XC3Biih-14" value="" style="endArrow=none;startArrow=none;endFill=0;startFill=0;endSize=8;html=1;verticalAlign=bottom;labelBackgroundColor=none;strokeWidth=3;rounded=0;entryX=0.5;entryY=0;entryDx=0;entryDy=0;" edge="1" parent="1" target="xC81MT41t4YI-uZw1Y0j-15">
          <mxGeometry width="160" relative="1" as="geometry">
            <mxPoint x="470" y="480" as="sourcePoint" />
            <mxPoint x="590" y="490" as="targetPoint" />
            <Array as="points">
              <mxPoint x="580" y="480" />
            </Array>
          </mxGeometry>
        </mxCell>
        <mxCell id="_AO3a3Tt-OD15XC3Biih-15" value="" style="endArrow=none;startArrow=diamondThin;endFill=0;startFill=0;html=1;verticalAlign=bottom;labelBackgroundColor=none;strokeWidth=1;startSize=8;endSize=8;rounded=0;entryX=0;entryY=0.5;entryDx=0;entryDy=0;exitX=1;exitY=0.5;exitDx=0;exitDy=0;" edge="1" parent="1" source="xC81MT41t4YI-uZw1Y0j-17" target="xC81MT41t4YI-uZw1Y0j-20">
          <mxGeometry width="160" relative="1" as="geometry">
            <mxPoint x="290" y="100" as="sourcePoint" />
            <mxPoint x="450" y="100" as="targetPoint" />
            <Array as="points">
              <mxPoint x="400" y="180" />
              <mxPoint x="400" y="60" />
            </Array>
          </mxGeometry>
        </mxCell>
        <mxCell id="_AO3a3Tt-OD15XC3Biih-16" value="" style="endArrow=none;startArrow=none;endFill=0;startFill=0;endSize=8;html=1;verticalAlign=bottom;labelBackgroundColor=none;strokeWidth=3;rounded=0;entryX=0;entryY=0.5;entryDx=0;entryDy=0;" edge="1" parent="1" target="xC81MT41t4YI-uZw1Y0j-19">
          <mxGeometry width="160" relative="1" as="geometry">
            <mxPoint x="400" y="180" as="sourcePoint" />
            <mxPoint x="440" y="270" as="targetPoint" />
            <Array as="points">
              <mxPoint x="400" y="275" />
            </Array>
          </mxGeometry>
        </mxCell>
        <mxCell id="_AO3a3Tt-OD15XC3Biih-18" value="" style="endArrow=none;startArrow=diamondThin;endFill=0;startFill=1;html=1;verticalAlign=bottom;labelBackgroundColor=none;strokeWidth=1;startSize=8;endSize=8;rounded=0;entryX=0;entryY=0.5;entryDx=0;entryDy=0;exitX=1;exitY=0.5;exitDx=0;exitDy=0;" edge="1" parent="1" source="xC81MT41t4YI-uZw1Y0j-20" target="xC81MT41t4YI-uZw1Y0j-23">
          <mxGeometry width="160" relative="1" as="geometry">
            <mxPoint x="640" y="160" as="sourcePoint" />
            <mxPoint x="800" y="160" as="targetPoint" />
            <Array as="points">
              <mxPoint x="600" y="60" />
              <mxPoint x="600" y="25" />
            </Array>
          </mxGeometry>
        </mxCell>
        <mxCell id="_AO3a3Tt-OD15XC3Biih-19" value="" style="endArrow=none;startArrow=none;endFill=0;startFill=0;endSize=8;html=1;verticalAlign=bottom;labelBackgroundColor=none;strokeWidth=3;rounded=0;entryX=0;entryY=0.5;entryDx=0;entryDy=0;" edge="1" parent="1" target="xC81MT41t4YI-uZw1Y0j-28">
          <mxGeometry width="160" relative="1" as="geometry">
            <mxPoint x="600" y="60" as="sourcePoint" />
            <mxPoint x="500" y="240" as="targetPoint" />
            <Array as="points">
              <mxPoint x="600" y="105" />
            </Array>
          </mxGeometry>
        </mxCell>
        <mxCell id="_AO3a3Tt-OD15XC3Biih-20" value="" style="endArrow=none;startArrow=diamondThin;endFill=0;startFill=1;html=1;verticalAlign=bottom;labelBackgroundColor=none;strokeWidth=1;startSize=8;endSize=8;rounded=0;exitX=1;exitY=0.5;exitDx=0;exitDy=0;entryX=0;entryY=0.5;entryDx=0;entryDy=0;" edge="1" parent="1" source="xC81MT41t4YI-uZw1Y0j-19" target="xC81MT41t4YI-uZw1Y0j-33">
          <mxGeometry width="160" relative="1" as="geometry">
            <mxPoint x="620" y="179.5" as="sourcePoint" />
            <mxPoint x="780" y="179.5" as="targetPoint" />
            <Array as="points">
              <mxPoint x="600" y="275" />
              <mxPoint x="600" y="245" />
            </Array>
          </mxGeometry>
        </mxCell>
        <mxCell id="_AO3a3Tt-OD15XC3Biih-21" value="" style="endArrow=none;startArrow=none;endFill=0;startFill=0;endSize=8;html=1;verticalAlign=bottom;labelBackgroundColor=none;strokeWidth=3;rounded=0;entryX=0;entryY=0.5;entryDx=0;entryDy=0;" edge="1" parent="1" target="xC81MT41t4YI-uZw1Y0j-37">
          <mxGeometry width="160" relative="1" as="geometry">
            <mxPoint x="600" y="270" as="sourcePoint" />
            <mxPoint x="790" y="400" as="targetPoint" />
            <Array as="points">
              <mxPoint x="600" y="325" />
            </Array>
          </mxGeometry>
        </mxCell>
        <mxCell id="_AO3a3Tt-OD15XC3Biih-22" value="" style="endArrow=none;startArrow=diamondThin;endFill=0;startFill=0;html=1;verticalAlign=bottom;labelBackgroundColor=none;strokeWidth=1;startSize=8;endSize=8;rounded=0;entryX=0.5;entryY=0;entryDx=0;entryDy=0;exitX=0.5;exitY=1;exitDx=0;exitDy=0;" edge="1" parent="1" source="xC81MT41t4YI-uZw1Y0j-20" target="xC81MT41t4YI-uZw1Y0j-43">
          <mxGeometry width="160" relative="1" as="geometry">
            <mxPoint x="340" y="150" as="sourcePoint" />
            <mxPoint x="500" y="150" as="targetPoint" />
          </mxGeometry>
        </mxCell>
        <mxCell id="_AO3a3Tt-OD15XC3Biih-23" value="" style="endArrow=none;startArrow=diamondThin;endFill=0;startFill=0;html=1;verticalAlign=bottom;labelBackgroundColor=none;strokeWidth=1;startSize=8;endSize=8;rounded=0;entryX=0.5;entryY=1;entryDx=0;entryDy=0;exitX=0.5;exitY=0;exitDx=0;exitDy=0;" edge="1" parent="1" source="xC81MT41t4YI-uZw1Y0j-19" target="xC81MT41t4YI-uZw1Y0j-43">
          <mxGeometry width="160" relative="1" as="geometry">
            <mxPoint x="340" y="150" as="sourcePoint" />
            <mxPoint x="500" y="150" as="targetPoint" />
          </mxGeometry>
        </mxCell>
      </root>
    </mxGraphModel>
  </diagram>
</mxfile>
